<svg width="17" height="17" viewBox="0 0 17 17" fill="none" xmlns="http://www.w3.org/2000/svg">
<path d="M10.2638 5.44262C10.3357 6.11502 10.8765 6.65583 11.5486 6.73074C12.0478 6.78638 12.5603 6.83417 13.0829 6.83417C13.6055 6.83417 14.118 6.78639 14.6172 6.73074C15.2893 6.65583 15.8301 6.11502 15.902 5.44262C15.9552 4.94624 16 4.43663 16 3.91709C16 3.39754 15.9552 2.88793 15.902 2.39155C15.8301 1.71915 15.2893 1.17834 14.6172 1.10343C14.118 1.04779 13.6055 1 13.0829 1C12.5603 1 12.0478 1.04779 11.5486 1.10343C10.8765 1.17834 10.3357 1.71915 10.2638 2.39155C10.2107 2.88793 10.1658 3.39754 10.1658 3.91709C10.1658 4.43663 10.2107 4.94624 10.2638 5.44262Z" fill="#FFD600"/>
<path d="M15.902 2.39155L15.1563 2.47134L15.902 2.39155ZM14.6172 1.10343L14.7003 0.358049L14.6172 1.10343ZM14.6172 6.73074L14.5341 5.98536L14.6172 6.73074ZM15.902 5.44262L15.1563 5.36283L15.902 5.44262ZM11.5486 1.10343L11.4655 0.358049L11.5486 1.10343ZM10.2638 2.39155L11.0095 2.47134L10.2638 2.39155ZM11.5486 6.73074L11.6317 5.98536L11.5486 6.73074ZM10.2638 5.44262L11.0095 5.36284L10.2638 5.44262ZM13.0829 6.08417C12.6034 6.08417 12.1244 6.04028 11.6317 5.98536L11.4655 7.47613C11.9712 7.53249 12.5173 7.58417 13.0829 7.58417V6.08417ZM14.5341 5.98536C14.0414 6.04028 13.5625 6.08417 13.0829 6.08417V7.58417C13.6485 7.58417 14.1947 7.53249 14.7003 7.47613L14.5341 5.98536ZM16.6478 5.52241C16.7017 5.01884 16.75 4.47743 16.75 3.91709H15.25C15.25 4.39584 15.2086 4.87365 15.1563 5.36283L16.6478 5.52241ZM16.75 3.91709C16.75 3.35674 16.7017 2.81534 16.6478 2.31177L15.1563 2.47134C15.2086 2.96052 15.25 3.43834 15.25 3.91709H16.75ZM13.0829 1.75C13.5625 1.75 14.0414 1.79389 14.5341 1.84882L14.7003 0.358049C14.1947 0.301687 13.6485 0.25 13.0829 0.25V1.75ZM11.6317 1.84882C12.1244 1.79389 12.6034 1.75 13.0829 1.75V0.25C12.5173 0.25 11.9712 0.301687 11.4655 0.358049L11.6317 1.84882ZM9.51803 2.31177C9.46416 2.81534 9.41583 3.35674 9.41583 3.91709H10.9158C10.9158 3.43834 10.9572 2.96052 11.0095 2.47134L9.51803 2.31177ZM9.41583 3.91709C9.41583 4.47743 9.46416 5.01884 9.51803 5.52241L11.0095 5.36284C10.9572 4.87365 10.9158 4.39584 10.9158 3.91709H9.41583ZM16.6478 2.31177C16.5382 1.28787 15.7204 0.47175 14.7003 0.358049L14.5341 1.84882C14.8582 1.88494 15.122 2.15044 15.1563 2.47134L16.6478 2.31177ZM14.7003 7.47613C15.7204 7.36242 16.5382 6.5463 16.6478 5.52241L15.1563 5.36283C15.122 5.68374 14.8582 5.94923 14.5341 5.98536L14.7003 7.47613ZM11.4655 0.358049C10.4454 0.47175 9.62758 1.28787 9.51803 2.31177L11.0095 2.47134C11.0439 2.15044 11.3076 1.88494 11.6317 1.84882L11.4655 0.358049ZM11.6317 5.98536C11.3076 5.94923 11.0439 5.68374 11.0095 5.36284L9.51803 5.52241C9.62758 6.5463 10.4454 7.36242 11.4655 7.47613L11.6317 5.98536Z" fill="#404143"/>
<path d="M1.09795 5.44262C1.16989 6.11502 1.7107 6.65583 2.38277 6.73074C2.88197 6.78638 3.39452 6.83417 3.91709 6.83417C4.43966 6.83417 4.95221 6.78639 5.4514 6.73074C6.12348 6.65583 6.66428 6.11502 6.73622 5.44262C6.78933 4.94624 6.83417 4.43663 6.83417 3.91709C6.83417 3.39754 6.78933 2.88793 6.73622 2.39155C6.66428 1.71915 6.12348 1.17834 5.4514 1.10343C4.95221 1.04779 4.43966 1 3.91709 1C3.39452 1 2.88197 1.04779 2.38277 1.10343C1.7107 1.17834 1.16989 1.71915 1.09795 2.39155C1.04485 2.88793 1 3.39754 1 3.91709C1 4.43663 1.04485 4.94624 1.09795 5.44262Z" fill="#FFD600"/>
<path d="M6.73622 2.39155L5.99048 2.47134L6.73622 2.39155ZM5.4514 1.10343L5.53449 0.358049L5.4514 1.10343ZM5.4514 6.73074L5.36832 5.98536L5.4514 6.73074ZM6.73622 5.44262L5.99048 5.36283L6.73622 5.44262ZM2.38277 1.10343L2.29969 0.358049L2.38277 1.10343ZM1.09795 2.39155L1.8437 2.47134L1.09795 2.39155ZM2.38277 6.73074L2.46586 5.98536L2.38277 6.73074ZM1.09795 5.44262L1.8437 5.36284L1.09795 5.44262ZM3.91709 6.08417C3.43755 6.08417 2.9586 6.04028 2.46586 5.98536L2.29969 7.47613C2.80533 7.53249 3.35149 7.58417 3.91709 7.58417V6.08417ZM5.36832 5.98536C4.87557 6.04028 4.39663 6.08417 3.91709 6.08417V7.58417C4.48269 7.58417 5.02884 7.53249 5.53449 7.47613L5.36832 5.98536ZM7.48197 5.52241C7.53584 5.01884 7.58417 4.47743 7.58417 3.91709H6.08417C6.08417 4.39584 6.04282 4.87365 5.99048 5.36283L7.48197 5.52241ZM7.58417 3.91709C7.58417 3.35674 7.53584 2.81534 7.48197 2.31177L5.99048 2.47134C6.04282 2.96052 6.08417 3.43834 6.08417 3.91709H7.58417ZM3.91709 1.75C4.39663 1.75 4.87557 1.79389 5.36832 1.84882L5.53449 0.358049C5.02884 0.301687 4.48269 0.25 3.91709 0.25V1.75ZM2.46586 1.84882C2.9586 1.79389 3.43755 1.75 3.91709 1.75V0.25C3.35149 0.25 2.80533 0.301687 2.29969 0.358049L2.46586 1.84882ZM0.352208 2.31177C0.298332 2.81534 0.25 3.35674 0.25 3.91709H1.75C1.75 3.43834 1.79136 2.96052 1.8437 2.47134L0.352208 2.31177ZM0.25 3.91709C0.25 4.47743 0.298332 5.01884 0.352208 5.52241L1.8437 5.36284C1.79136 4.87365 1.75 4.39584 1.75 3.91709H0.25ZM7.48197 2.31177C7.37242 1.28787 6.55455 0.47175 5.53449 0.358049L5.36832 1.84882C5.6924 1.88494 5.95615 2.15044 5.99048 2.47134L7.48197 2.31177ZM5.53449 7.47613C6.55455 7.36242 7.37242 6.5463 7.48197 5.52241L5.99048 5.36283C5.95615 5.68374 5.6924 5.94923 5.36832 5.98536L5.53449 7.47613ZM2.29969 0.358049C1.27962 0.47175 0.461753 1.28787 0.352208 2.31177L1.8437 2.47134C1.87803 2.15044 2.14177 1.88494 2.46586 1.84882L2.29969 0.358049ZM2.46586 5.98536C2.14178 5.94923 1.87803 5.68374 1.8437 5.36284L0.352208 5.52241C0.461753 6.5463 1.27962 7.36242 2.29969 7.47613L2.46586 5.98536Z" fill="#404143"/>
<path d="M1.09795 14.7772C1.16989 15.4496 1.7107 15.9904 2.38277 16.0653C2.88197 16.121 3.39452 16.1688 3.91709 16.1688C4.43966 16.1688 4.95221 16.121 5.4514 16.0653C6.12348 15.9904 6.66428 15.4496 6.73622 14.7772C6.78933 14.2808 6.83417 13.7712 6.83417 13.2517C6.83417 12.7321 6.78933 12.2225 6.73622 11.7261C6.66428 11.0537 6.12348 10.5129 5.4514 10.438C4.95221 10.3824 4.43966 10.3346 3.91709 10.3346C3.39452 10.3346 2.88197 10.3824 2.38277 10.438C1.7107 10.5129 1.16989 11.0537 1.09795 11.7261C1.04485 12.2225 1 12.7321 1 13.2517C1 13.7712 1.04485 14.2808 1.09795 14.7772Z" fill="#FFD600"/>
<path d="M6.73622 11.7261L5.99048 11.8059L6.73622 11.7261ZM5.4514 10.438L5.53449 9.69264L5.4514 10.438ZM5.4514 16.0653L5.36832 15.32L5.4514 16.0653ZM6.73622 14.7772L5.99048 14.6974L6.73622 14.7772ZM2.38277 10.438L2.29969 9.69264L2.38277 10.438ZM1.09795 11.7261L1.8437 11.8059L1.09795 11.7261ZM2.38277 16.0653L2.46586 15.32L2.38277 16.0653ZM1.09795 14.7772L1.8437 14.6974L1.09795 14.7772ZM3.91709 15.4188C3.43755 15.4188 2.9586 15.3749 2.46586 15.32L2.29969 16.8107C2.80533 16.8671 3.35149 16.9188 3.91709 16.9188V15.4188ZM5.36832 15.32C4.87557 15.3749 4.39663 15.4188 3.91709 15.4188V16.9188C4.48269 16.9188 5.02884 16.8671 5.53449 16.8107L5.36832 15.32ZM7.48197 14.857C7.53584 14.3534 7.58417 13.812 7.58417 13.2517H6.08417C6.08417 13.7304 6.04282 14.2082 5.99048 14.6974L7.48197 14.857ZM7.58417 13.2517C7.58417 12.6913 7.53584 12.1499 7.48197 11.6464L5.99048 11.8059C6.04282 12.2951 6.08417 12.7729 6.08417 13.2517H7.58417ZM3.91709 11.0846C4.39663 11.0846 4.87557 11.1285 5.36832 11.1834L5.53449 9.69264C5.02884 9.63628 4.48269 9.58459 3.91709 9.58459V11.0846ZM2.46586 11.1834C2.9586 11.1285 3.43755 11.0846 3.91709 11.0846V9.58459C3.35149 9.58459 2.80533 9.63628 2.29969 9.69264L2.46586 11.1834ZM0.352208 11.6464C0.298332 12.1499 0.25 12.6913 0.25 13.2517H1.75C1.75 12.7729 1.79136 12.2951 1.8437 11.8059L0.352208 11.6464ZM0.25 13.2517C0.25 13.812 0.298332 14.3534 0.352208 14.857L1.8437 14.6974C1.79136 14.2082 1.75 13.7304 1.75 13.2517H0.25ZM7.48197 11.6464C7.37242 10.6225 6.55455 9.80634 5.53449 9.69264L5.36832 11.1834C5.6924 11.2195 5.95615 11.485 5.99048 11.8059L7.48197 11.6464ZM5.53449 16.8107C6.55455 16.697 7.37242 15.8809 7.48197 14.857L5.99048 14.6974C5.95615 15.0183 5.6924 15.2838 5.36832 15.32L5.53449 16.8107ZM2.29969 9.69264C1.27962 9.80634 0.461753 10.6225 0.352208 11.6464L1.8437 11.8059C1.87803 11.485 2.14177 11.2195 2.46586 11.1834L2.29969 9.69264ZM2.46586 15.32C2.14178 15.2838 1.87803 15.0183 1.8437 14.6974L0.352208 14.857C0.461753 15.8809 1.27962 16.697 2.29969 16.8107L2.46586 15.32Z" fill="#404143"/>
<path d="M10.2638 14.7772C10.3357 15.4496 10.8765 15.9904 11.5486 16.0653C12.0478 16.121 12.5603 16.1688 13.0829 16.1688C13.6055 16.1688 14.118 16.121 14.6172 16.0653C15.2893 15.9904 15.8301 15.4496 15.902 14.7772C15.9552 14.2808 16 13.7712 16 13.2517C16 12.7321 15.9552 12.2225 15.902 11.7261C15.8301 11.0537 15.2893 10.5129 14.6172 10.438C14.118 10.3824 13.6055 10.3346 13.0829 10.3346C12.5603 10.3346 12.0478 10.3824 11.5486 10.438C10.8765 10.5129 10.3357 11.0537 10.2638 11.7261C10.2107 12.2225 10.1658 12.7321 10.1658 13.2517C10.1658 13.7712 10.2107 14.2808 10.2638 14.7772Z" fill="#FFD600"/>
<path d="M15.902 11.7261L15.1563 11.8059L15.902 11.7261ZM14.6172 10.438L14.7003 9.69264L14.6172 10.438ZM14.6172 16.0653L14.5341 15.32L14.6172 16.0653ZM15.902 14.7772L15.1563 14.6974L15.902 14.7772ZM11.5486 10.438L11.4655 9.69264L11.5486 10.438ZM10.2638 11.7261L11.0095 11.8059L10.2638 11.7261ZM11.5486 16.0653L11.6317 15.32L11.5486 16.0653ZM10.2638 14.7772L11.0095 14.6974L10.2638 14.7772ZM13.0829 15.4188C12.6034 15.4188 12.1244 15.3749 11.6317 15.32L11.4655 16.8107C11.9712 16.8671 12.5173 16.9188 13.0829 16.9188V15.4188ZM14.5341 15.32C14.0414 15.3749 13.5625 15.4188 13.0829 15.4188V16.9188C13.6485 16.9188 14.1947 16.8671 14.7003 16.8107L14.5341 15.32ZM16.6478 14.857C16.7017 14.3534 16.75 13.812 16.75 13.2517H15.25C15.25 13.7304 15.2086 14.2082 15.1563 14.6974L16.6478 14.857ZM16.75 13.2517C16.75 12.6913 16.7017 12.1499 16.6478 11.6464L15.1563 11.8059C15.2086 12.2951 15.25 12.7729 15.25 13.2517H16.75ZM13.0829 11.0846C13.5625 11.0846 14.0414 11.1285 14.5341 11.1834L14.7003 9.69264C14.1947 9.63628 13.6485 9.58459 13.0829 9.58459V11.0846ZM11.6317 11.1834C12.1244 11.1285 12.6034 11.0846 13.0829 11.0846V9.58459C12.5173 9.58459 11.9712 9.63628 11.4655 9.69264L11.6317 11.1834ZM9.51803 11.6464C9.46416 12.1499 9.41583 12.6913 9.41583 13.2517H10.9158C10.9158 12.7729 10.9572 12.2951 11.0095 11.8059L9.51803 11.6464ZM9.41583 13.2517C9.41583 13.812 9.46416 14.3534 9.51803 14.857L11.0095 14.6974C10.9572 14.2082 10.9158 13.7304 10.9158 13.2517H9.41583ZM16.6478 11.6464C16.5382 10.6225 15.7204 9.80634 14.7003 9.69264L14.5341 11.1834C14.8582 11.2195 15.122 11.485 15.1563 11.8059L16.6478 11.6464ZM14.7003 16.8107C15.7204 16.697 16.5382 15.8809 16.6478 14.857L15.1563 14.6974C15.122 15.0183 14.8582 15.2838 14.5341 15.32L14.7003 16.8107ZM11.4655 9.69264C10.4454 9.80634 9.62758 10.6225 9.51803 11.6464L11.0095 11.8059C11.0439 11.485 11.3076 11.2195 11.6317 11.1834L11.4655 9.69264ZM11.6317 15.32C11.3076 15.2838 11.0439 15.0183 11.0095 14.6974L9.51803 14.857C9.62758 15.8809 10.4454 16.697 11.4655 16.8107L11.6317 15.32Z" fill="#404143"/>
</svg>
