<svg version="1.0" xmlns="http://www.w3.org/2000/svg"
   viewBox="0 0 1274.000000 1280.000000"
 preserveAspectRatio="xMidYMid meet">
<g transform="translate(0.000000,1280.000000) scale(0.100000,-0.100000)"
fill="#000000" stroke="none">
<path d="M5027 11356 c-21 -13 -60 -26 -86 -30 -28 -4 -72 -21 -107 -42 -32
-20 -81 -44 -109 -54 -27 -10 -90 -35 -140 -55 -149 -62 -314 -121 -650 -232
-176 -58 -355 -121 -397 -139 -109 -45 -192 -108 -300 -226 -51 -57 -125 -136
-164 -178 -40 -41 -121 -140 -181 -220 -60 -80 -172 -228 -249 -330 -77 -102
-178 -239 -224 -305 -160 -230 -704 -947 -827 -1090 -37 -44 -99 -118 -138
-165 -38 -47 -114 -135 -170 -196 -55 -61 -120 -134 -143 -163 l-44 -52 34
-43 c42 -54 97 -102 311 -274 94 -76 228 -187 297 -247 69 -59 171 -143 227
-186 125 -97 232 -191 427 -378 155 -147 176 -164 212 -175 25 -8 62 23 229
188 60 60 133 128 161 150 29 23 70 64 92 92 22 28 71 77 109 109 37 31 122
107 188 169 146 136 229 206 243 206 5 0 13 -7 16 -16 6 -17 -7 -398 -24 -704
-9 -161 -20 -529 -35 -1200 -4 -146 -10 -778 -15 -1405 -5 -627 -11 -1153 -13
-1170 -3 -16 -8 -223 -12 -460 -4 -236 -8 -468 -10 -515 -2 -47 -5 -239 -5
-428 -2 -386 -5 -370 73 -391 97 -26 353 -41 757 -45 228 -3 453 -9 500 -15
122 -14 615 -34 655 -27 18 4 148 11 287 16 139 5 324 14 412 21 140 11 180
10 339 -6 141 -14 220 -16 352 -11 571 23 1171 36 1657 36 553 0 686 6 725 35
11 9 18 29 19 66 6 126 2 634 -6 754 -5 72 -16 432 -24 800 -9 369 -20 825
-26 1015 -5 190 -14 534 -20 765 -6 231 -17 557 -25 725 -18 384 -28 794 -41
1605 -6 421 -3 465 32 465 9 0 57 -39 107 -86 51 -48 139 -122 196 -166 150
-115 378 -307 431 -363 71 -76 110 -112 178 -164 57 -45 66 -49 92 -40 16 6
61 40 102 77 41 37 107 96 148 132 41 35 105 92 141 126 146 135 413 357 579
480 96 72 213 166 260 209 47 43 119 105 160 138 41 33 77 61 79 63 3 3 -16
26 -40 52 -76 78 -196 228 -329 407 -157 212 -177 239 -271 361 -42 55 -143
198 -224 319 -82 121 -194 285 -250 365 -56 80 -123 177 -150 215 -27 39 -67
97 -89 130 -57 85 -307 382 -442 525 -62 66 -120 133 -128 148 -25 48 -402
382 -431 382 -6 0 -34 18 -64 40 -113 85 -173 107 -716 264 -121 35 -256 76
-300 90 -44 15 -153 49 -241 76 -89 27 -192 65 -230 84 -38 19 -91 40 -119 47
-27 6 -73 24 -100 40 -43 24 -56 27 -89 19 -21 -4 -48 -17 -59 -28 -36 -31
-294 -148 -412 -185 -198 -63 -347 -81 -680 -82 -251 0 -312 3 -455 23 -191
27 -231 35 -320 64 -68 22 -219 98 -305 153 -51 32 -126 65 -148 65 -6 0 -29
-11 -50 -24z"/>
</g>
</svg>
